<svg width="96" height="35" viewBox="0 0 96 35" fill="none" xmlns="http://www.w3.org/2000/svg">
<path fill-rule="evenodd" clip-rule="evenodd" d="M39.9261 34.6612H24.4219C25.2693 31.5521 26.1164 28.4427 26.9675 25.3346C32.1537 25.3346 37.3402 25.3365 42.5264 25.3325C41.6744 28.4419 40.8238 31.5516 39.9727 34.6612H39.9261Z" fill="#DA4100"/>
<path fill-rule="evenodd" clip-rule="evenodd" d="M27.6992 22.3796C28.5475 19.2707 29.3948 16.1616 30.2448 13.0532C39.5385 13.0654 48.8329 13.0643 58.1266 13.0643C57.2749 16.1702 56.4249 19.2767 55.5704 22.3819L27.6992 22.3796Z" fill="#DA4100"/>
<path d="M67.925 10.2137L31.2461 10.1328C32.0933 7.0238 32.9416 3.91495 33.7916 0.806641C46.0236 0.82271 58.2567 0.834601 70.4888 0.834601C69.6511 3.96125 68.7667 7.08814 67.925 10.2137Z" fill="#DA4100"/>
<path d="M12.5406 22.3808L0 22.3845C0.900582 19.2774 1.80251 16.1703 2.70776 13.0646L15.0857 13.0216L18.4061 0.811663C22.5314 0.811663 26.6568 0.811234 30.7821 0.808105C27.7095 12.0871 24.634 23.3663 21.5765 34.6493H9.20429L12.5406 22.3808Z" fill="white"/>
<path d="M82.6752 13.0767L95.2157 13.0728C94.3158 16.1801 93.4144 19.2875 92.508 22.3928L80.1301 22.4358L76.8097 34.6457C72.6844 34.6511 68.5588 34.6493 64.4336 34.6493C67.5085 23.371 70.5817 12.091 73.6392 0.808105L86.0115 0.808105L82.6752 13.0767Z" fill="white"/>
</svg>
